HIERARCHY
ROOT root
{
	OFFSET	0	13.1	24.9
	CHANNELS 6  Xposition Yposition Zposition Xrotation Yrotation Zrotation
	JOINT spine_1
	{
		OFFSET	0	9.99999	0
		CHANNELS 3  Xrotation Yrotation Zrotation
		JOINT spine_2
		{
			OFFSET	0	112	-10
			CHANNELS 3  Xrotation Yrotation Zrotation
			JOINT spine_3
			{
				OFFSET	0	206.5	19.3
				CHANNELS 3  Xrotation Yrotation Zrotation
				JOINT spine_4
				{
					OFFSET	0	110.4	14.6
					CHANNELS 3  Xrotation Yrotation Zrotation
					JOINT neck_1
					{
						OFFSET	0	71.8	-50.3
						CHANNELS 3  Xrotation Yrotation Zrotation
						JOINT neck_2
						{
							OFFSET	0	86.2	-25.8
							CHANNELS 3  Xrotation Yrotation Zrotation
							JOINT head_ee
							{
								OFFSET	0	179.8	-8.7
								CHANNELS 3  Xrotation Yrotation Zrotation
								End Site
								{
									OFFSET	1	0	0
								}
							}
						}
					}
					JOINT left_clavicle
					{
						OFFSET	-43.2	22.4	-70.8
						CHANNELS 3  Xrotation Yrotation Zrotation
						JOINT left_shoulder
						{
							OFFSET	-93.9	-5.79999	48.7
							CHANNELS 3  Xrotation Yrotation Zrotation
							JOINT left_elbow
							{
								OFFSET	-291.4	-30.8	15.2
								CHANNELS 3  Xrotation Yrotation Zrotation
								JOINT left_lowarm_twist
								{
									OFFSET	-110.7	-3.89999	13.6
									CHANNELS 3  Xrotation Yrotation Zrotation
									JOINT left_hand
									{
										OFFSET	-110.7	-3.89999	13.6
										CHANNELS 3  Xrotation Yrotation Zrotation
										JOINT left_ee
										{
											OFFSET	-80.8	-5.10001	12.1
											CHANNELS 3  Xrotation Yrotation Zrotation
											End Site
											{
												OFFSET	1	0	0
											}
										}
									}
								}
							}
						}
					}
					JOINT right_clavicle
					{
						OFFSET	43.2	22.4	-70.8
						CHANNELS 3  Xrotation Yrotation Zrotation
						JOINT right_shoulder
						{
							OFFSET	93.9	-5.79999	48.7
							CHANNELS 3  Xrotation Yrotation Zrotation
							JOINT right_elbow
							{
								OFFSET	291.4	-30.8	15.2
								CHANNELS 3  Xrotation Yrotation Zrotation
								JOINT right_lowarm_twist
								{
									OFFSET	110.7	-3.89999	13.6
									CHANNELS 3  Xrotation Yrotation Zrotation
									JOINT right_hand
									{
										OFFSET	110.7	-3.89999	13.6
										CHANNELS 3  Xrotation Yrotation Zrotation
										JOINT right_ee
										{
											OFFSET	80.8	-5.10001	12.1
											CHANNELS 3  Xrotation Yrotation Zrotation
											End Site
											{
												OFFSET	1	0	0
											}
										}
									}
								}
							}
						}
					}
				}
			}
		}
	}
	JOINT left_hip
	{
		OFFSET	-82.8	-127.5	0.300001
		CHANNELS 3  Xrotation Yrotation Zrotation
		JOINT left_knee
		{
			OFFSET	-28.2	-396.7	2.2
			CHANNELS 3  Xrotation Yrotation Zrotation
			JOINT left_ankle
			{
				OFFSET	-11.7	-411.3	35.4
				CHANNELS 3  Xrotation Yrotation Zrotation
				JOINT left_toes
				{
					OFFSET	0	-60	-88.6
					CHANNELS 3  Xrotation Yrotation Zrotation
					JOINT left_foot_ee
					{
						OFFSET	-22.5	-16.5	-42.2
						CHANNELS 3  Xrotation Yrotation Zrotation
						End Site
						{
							OFFSET	1	0	0
						}
					}
				}
			}
		}
	}
	JOINT right_hip
	{
		OFFSET	82.8	-127.5	0.300001
		CHANNELS 3  Xrotation Yrotation Zrotation
		JOINT right_knee
		{
			OFFSET	28.2	-396.7	2.2
			CHANNELS 3  Xrotation Yrotation Zrotation
			JOINT right_ankle
			{
				OFFSET	11.7	-411.3	35.4
				CHANNELS 3  Xrotation Yrotation Zrotation
				JOINT right_toes
				{
					OFFSET	0	-60	-88.6
					CHANNELS 3  Xrotation Yrotation Zrotation
					JOINT right_foot_ee
					{
						OFFSET	22.5	-16.5	-42.2
						CHANNELS 3  Xrotation Yrotation Zrotation
						End Site
						{
							OFFSET	1	0	0
						}
					}
				}
			}
		}
	}
}
MOTION
Frames: 6
Frame Time: 0.02
1026.81 739.577 -1520.95 177.07 73.1066 175.399 -1.41204 0.466052 3.99209 -1.4032 0.21129 4.01361 -1.38077 -0.733426 3.95178 -1.40255 -0.100637 4.0179 8.09357 6.25843 -2.65343 8.40385 12.8346 -3.05552 -0.0 0.0 -0.0 -2.72407 -17.6142 -7.94691 4.14053 -26.3405 58.9054 1.64198 -39.1215 0.583453 -45.5233 -3.55678 4.42853 2.49873 8.96343 20.2868 -0.0 0.0 -0.0 10.1561 0.853457 -20.0191 -22.8283 0.181384 -72.1266 0.680741 18.6352 -0.111691 7.11182 -0.195741 0.88678 0.727095 1.60137 -4.20151 0.0 0.0 0.0 -2.09048 0.985487 -1.41566 -25.2435 0.196673 3.83762 5.73963 -29.3144 -1.04173 35.0382 -0.0 -0.0 -0.0 0.0 -0.0 20.0976 7.99828 9.5413 7.01384 0.351674 1.01777 -15.4472 -15.2873 -2.33158 -19.5302 0.0 0.0 0.0 0.0 0.0 
1005.31 737.482 -1526.91 176.621 73.404 175.676 -1.382 0.473568 4.00572 -1.3731 0.217925 4.02769 -1.35016 -0.728138 3.96741 -1.3721 -0.0929532 4.0325 8.9782 6.57781 -2.53321 9.31593 13.1878 -2.9925 -0.0 0.0 -0.0 -2.72149 -18.0265 -7.99562 1.90686 -25.7583 59.6222 1.4698 -36.056 0.478386 -44.7796 -3.47321 4.38242 2.66953 8.49293 21.3123 -0.0 0.0 -0.0 10.3616 1.43502 -20.4754 -21.3338 0.29138 -71.8148 0.688245 18.8262 -0.114101 6.79347 -0.189344 0.846618 0.790502 2.24275 -4.36229 0.0 0.0 0.0 -1.97836 0.510776 -1.4085 -27.5527 0.129995 4.18571 5.65009 -29.4514 -1.02771 35.0475 -0.0 -0.0 -0.0 0.0 -0.0 19.5658 7.81327 9.28097 6.96201 0.34862 1.01041 -14.6332 -16.5525 -2.21339 -19.8538 0.0 0.0 0.0 0.0 0.0 
994.237 735.337 -1527.42 177.099 73.5971 174.405 -1.41539 0.491871 4.02491 -1.40641 0.234974 4.048 -1.38199 -0.718493 3.99074 -1.40419 -0.0797534 4.05402 9.55389 7.06516 -2.30785 9.9205 13.7374 -2.77254 -0.0 0.0 -0.0 -2.72185 -18.6351 -8.07583 -0.412115 -25.0298 60.6368 1.34162 -33.6062 0.405154 -43.7103 -3.35412 4.31422 2.89812 7.58819 22.6073 -0.0 0.0 -0.0 10.4435 2.33956 -20.6869 -20.0852 0.272434 -71.3667 0.710905 19.4003 -0.121521 6.51436 -0.183551 0.811435 0.890207 3.27872 -4.60379 0.0 0.0 0.0 -1.61303 -0.137847 -1.32421 -28.9404 0.08319 4.39354 5.60826 -29.5984 -1.02228 35.0749 -0.0 -0.0 -0.0 0.0 -0.0 18.7642 7.56677 8.84947 6.79775 0.338986 0.987078 -13.4519 -17.997 -2.04022 -20.3189 0.0 0.0 0.0 0.0 0.0 
974.962 739.46 -1531.96 174.851 73.9073 176.552 -1.66558 0.509062 3.9956 -1.65674 0.25399 4.01984 -1.63057 -0.710591 3.96477 -1.65249 -0.0760418 4.02713 10.1575 7.77224 -1.96301 10.5636 14.5235 -2.40994 -0.0 0.0 -0.0 -2.84931 -19.8249 -8.50758 -2.99473 -24.0299 61.3983 1.20326 -30.7964 0.331404 -42.1826 -3.18621 4.21297 3.20488 6.29422 24.3477 -0.0 0.0 -0.0 10.546 3.33127 -20.9424 -18.8667 0.190337 -70.9539 0.738326 20.0897 -0.130785 6.13752 -0.175459 0.763977 1.05052 4.77391 -5.06247 0.0 0.0 0.0 -1.20441 -1.00498 -1.2067 -30.6609 0.0181856 4.64956 5.54862 -29.6748 -1.01268 35.0917 -0.0 -0.0 -0.0 0.0 -0.0 18.12 7.33412 8.40094 6.59042 0.326922 0.957586 -11.8093 -20.0551 -1.79974 -20.9831 0.0 0.0 0.0 0.0 0.0 
958.073 730.734 -1537.71 174.044 73.9137 177.347 -2.04113 0.457592 4.036 -2.03209 0.20006 4.05689 -2.0087 -0.798285 3.98273 -2.0308 -0.159811 4.05867 10.8762 8.76109 -1.5712 11.3481 15.6939 -2.00403 -0.0 0.0 -0.0 -2.78743 -22.1414 -8.65942 -5.39842 -22.9226 62.4631 1.04262 -27.3149 0.253349 -40.0088 -2.9521 4.06129 3.61454 4.45915 26.6854 -0.0 0.0 -0.0 10.745 4.37886 -21.4038 -17.1023 0.0545515 -70.5919 0.777449 21.0629 -0.144535 5.62103 -0.16386 0.699019 1.29205 6.90877 -5.79917 0.0 0.0 0.0 -0.267098 -2.1876 -0.908642 -32.2974 -0.0507641 4.89122 5.48282 -29.682 -1.00102 35.1143 -0.0 -0.0 -0.0 0.0 -0.0 17.1359 7.33345 7.6318 6.3729 0.31438 0.926599 -9.42524 -22.7574 -1.44754 -21.9136 0.0 0.0 0.0 0.0 0.0 
947.401 742.539 -1542.9 173.124 74.7598 178.327 -2.21894 0.487483 4.12112 -2.20952 0.224488 4.14373 -2.18318 -0.808258 4.07046 -2.20626 -0.155839 4.14688 11.9304 10.2094 -0.999545 12.5095 17.3616 -1.41462 -0.0 0.0 -0.0 -2.71746 -25.4477 -8.89012 -8.45946 -21.403 63.977 0.844707 -22.7063 0.169607 -36.9042 -2.6281 3.82956 4.17665 1.85513 29.9477 -0.0 0.0 -0.0 10.977 5.89451 -21.9477 -14.6262 -0.108267 -69.9838 0.834777 22.4661 -0.165794 4.88491 -0.146318 0.606622 1.64669 9.99976 -6.88181 0.0 0.0 0.0 1.23632 -3.87031 -0.480502 -34.0668 -0.133064 5.15022 5.39381 -29.6177 -0.984235 35.1545 -0.0 -0.0 -0.0 0.0 -0.0 15.4281 7.34908 7.00715 6.02827 0.29475 0.87741 -5.95978 -26.5688 -0.928213 -23.2154 0.0 0.0 0.0 0.0 0.0 
